<mxfile host="app.diagrams.net" modified="2021-05-08T21:06:18.605Z" agent="5.0 (X11; CrOS aarch64 13816.64.0) AppleWebKit/537.36 (KHTML, like Gecko) Chrome/90.0.4430.100 Safari/537.36" etag="MnjMubBvvL-TOv5qvpMy" version="14.6.11" type="github">
  <diagram id="Cp1j5-uVQbLEjNZlBwps" name="Page-1">
    <mxGraphModel dx="582" dy="415" grid="1" gridSize="10" guides="1" tooltips="1" connect="1" arrows="1" fold="1" page="1" pageScale="1" pageWidth="850" pageHeight="1100" math="0" shadow="0">
      <root>
        <mxCell id="0" />
        <mxCell id="1" parent="0" />
        <mxCell id="dkfDKsusUFSESO2IqrAy-8" style="edgeStyle=orthogonalEdgeStyle;rounded=0;orthogonalLoop=1;jettySize=auto;html=1;exitX=0.5;exitY=1;exitDx=0;exitDy=0;entryX=0.5;entryY=0;entryDx=0;entryDy=0;" edge="1" parent="1" source="dkfDKsusUFSESO2IqrAy-1" target="dkfDKsusUFSESO2IqrAy-3">
          <mxGeometry relative="1" as="geometry" />
        </mxCell>
        <mxCell id="dkfDKsusUFSESO2IqrAy-12" style="edgeStyle=orthogonalEdgeStyle;rounded=0;orthogonalLoop=1;jettySize=auto;html=1;exitX=0.5;exitY=1;exitDx=0;exitDy=0;entryX=0.5;entryY=0;entryDx=0;entryDy=0;" edge="1" parent="1" source="dkfDKsusUFSESO2IqrAy-1" target="dkfDKsusUFSESO2IqrAy-2">
          <mxGeometry relative="1" as="geometry" />
        </mxCell>
        <mxCell id="dkfDKsusUFSESO2IqrAy-13" style="edgeStyle=orthogonalEdgeStyle;rounded=0;orthogonalLoop=1;jettySize=auto;html=1;exitX=0.5;exitY=1;exitDx=0;exitDy=0;entryX=0.5;entryY=0;entryDx=0;entryDy=0;" edge="1" parent="1" source="dkfDKsusUFSESO2IqrAy-1" target="dkfDKsusUFSESO2IqrAy-4">
          <mxGeometry relative="1" as="geometry" />
        </mxCell>
        <mxCell id="dkfDKsusUFSESO2IqrAy-1" value="Correct Number?" style="rounded=0;whiteSpace=wrap;html=1;" vertex="1" parent="1">
          <mxGeometry x="240" y="210" width="120" height="60" as="geometry" />
        </mxCell>
        <mxCell id="dkfDKsusUFSESO2IqrAy-10" style="edgeStyle=orthogonalEdgeStyle;rounded=0;orthogonalLoop=1;jettySize=auto;html=1;exitX=0.5;exitY=1;exitDx=0;exitDy=0;entryX=0.5;entryY=0;entryDx=0;entryDy=0;" edge="1" parent="1" source="dkfDKsusUFSESO2IqrAy-2" target="dkfDKsusUFSESO2IqrAy-6">
          <mxGeometry relative="1" as="geometry" />
        </mxCell>
        <mxCell id="dkfDKsusUFSESO2IqrAy-2" value="Input" style="rounded=0;whiteSpace=wrap;html=1;" vertex="1" parent="1">
          <mxGeometry x="90" y="310" width="120" height="60" as="geometry" />
        </mxCell>
        <mxCell id="dkfDKsusUFSESO2IqrAy-9" style="edgeStyle=orthogonalEdgeStyle;rounded=0;orthogonalLoop=1;jettySize=auto;html=1;exitX=0.5;exitY=1;exitDx=0;exitDy=0;entryX=0.5;entryY=0;entryDx=0;entryDy=0;" edge="1" parent="1" source="dkfDKsusUFSESO2IqrAy-3" target="dkfDKsusUFSESO2IqrAy-5">
          <mxGeometry relative="1" as="geometry" />
        </mxCell>
        <mxCell id="dkfDKsusUFSESO2IqrAy-3" value="Process" style="rounded=0;whiteSpace=wrap;html=1;" vertex="1" parent="1">
          <mxGeometry x="240" y="310" width="120" height="60" as="geometry" />
        </mxCell>
        <mxCell id="dkfDKsusUFSESO2IqrAy-11" style="edgeStyle=orthogonalEdgeStyle;rounded=0;orthogonalLoop=1;jettySize=auto;html=1;exitX=0.5;exitY=1;exitDx=0;exitDy=0;entryX=0.5;entryY=0;entryDx=0;entryDy=0;" edge="1" parent="1" source="dkfDKsusUFSESO2IqrAy-4" target="dkfDKsusUFSESO2IqrAy-7">
          <mxGeometry relative="1" as="geometry" />
        </mxCell>
        <mxCell id="dkfDKsusUFSESO2IqrAy-4" value="Output" style="rounded=0;whiteSpace=wrap;html=1;" vertex="1" parent="1">
          <mxGeometry x="390" y="310" width="120" height="60" as="geometry" />
        </mxCell>
        <mxCell id="dkfDKsusUFSESO2IqrAy-5" value="Check if number = some_variable" style="rounded=0;whiteSpace=wrap;html=1;" vertex="1" parent="1">
          <mxGeometry x="240" y="400" width="120" height="60" as="geometry" />
        </mxCell>
        <mxCell id="dkfDKsusUFSESO2IqrAy-6" value="Get number" style="rounded=0;whiteSpace=wrap;html=1;" vertex="1" parent="1">
          <mxGeometry x="90" y="400" width="120" height="60" as="geometry" />
        </mxCell>
        <mxCell id="dkfDKsusUFSESO2IqrAy-7" value="Show if correct" style="rounded=0;whiteSpace=wrap;html=1;" vertex="1" parent="1">
          <mxGeometry x="390" y="400" width="120" height="60" as="geometry" />
        </mxCell>
      </root>
    </mxGraphModel>
  </diagram>
</mxfile>
